<?xml version="1.0" encoding="UTF-8"?>
<svg width="600" height="100" viewBox="0 0 600 100" xmlns="http://www.w3.org/2000/svg">
  <!-- Frame 1 -->
  <g transform="translate(0,0)">
    <circle cx="50" cy="50" r="20" fill="#ff6b6b"/>
    <path d="M30 70 L70 70" stroke="#ff6b6b" stroke-width="4" fill="none"/>
    <path d="M30 70 L20 90" stroke="#ff6b6b" stroke-width="4" fill="none"/>
    <path d="M70 70 L80 90" stroke="#ff6b6b" stroke-width="4" fill="none"/>
    <path d="M50 30 L50 70" stroke="#ff6b6b" stroke-width="4" fill="none"/>
    <path d="M50 30 L30 50" stroke="#ff6b6b" stroke-width="4" fill="none"/>
    <path d="M50 30 L70 50" stroke="#ff6b6b" stroke-width="4" fill="none"/>
  </g>
  
  <!-- Frame 2 -->
  <g transform="translate(100,0)">
    <circle cx="50" cy="50" r="20" fill="#ff6b6b"/>
    <path d="M30 70 L70 70" stroke="#ff6b6b" stroke-width="4" fill="none"/>
    <path d="M30 70 L20 90" stroke="#ff6b6b" stroke-width="4" fill="none"/>
    <path d="M70 70 L80 90" stroke="#ff6b6b" stroke-width="4" fill="none"/>
    <path d="M50 30 L50 70" stroke="#ff6b6b" stroke-width="4" fill="none"/>
    <path d="M50 30 L30 50" stroke="#ff6b6b" stroke-width="4" fill="none"/>
    <path d="M50 30 L70 50" stroke="#ff6b6b" stroke-width="4" fill="none"/>
  </g>
  
  <!-- Frame 3 -->
  <g transform="translate(200,0)">
    <circle cx="50" cy="50" r="20" fill="#ff6b6b"/>
    <path d="M30 70 L70 70" stroke="#ff6b6b" stroke-width="4" fill="none"/>
    <path d="M30 70 L20 90" stroke="#ff6b6b" stroke-width="4" fill="none"/>
    <path d="M70 70 L80 90" stroke="#ff6b6b" stroke-width="4" fill="none"/>
    <path d="M50 30 L50 70" stroke="#ff6b6b" stroke-width="4" fill="none"/>
    <path d="M50 30 L30 50" stroke="#ff6b6b" stroke-width="4" fill="none"/>
    <path d="M50 30 L70 50" stroke="#ff6b6b" stroke-width="4" fill="none"/>
  </g>
  
  <!-- Frame 4 -->
  <g transform="translate(300,0)">
    <circle cx="50" cy="50" r="20" fill="#ff6b6b"/>
    <path d="M30 70 L70 70" stroke="#ff6b6b" stroke-width="4" fill="none"/>
    <path d="M30 70 L20 90" stroke="#ff6b6b" stroke-width="4" fill="none"/>
    <path d="M70 70 L80 90" stroke="#ff6b6b" stroke-width="4" fill="none"/>
    <path d="M50 30 L50 70" stroke="#ff6b6b" stroke-width="4" fill="none"/>
    <path d="M50 30 L30 50" stroke="#ff6b6b" stroke-width="4" fill="none"/>
    <path d="M50 30 L70 50" stroke="#ff6b6b" stroke-width="4" fill="none"/>
  </g>
  
  <!-- Frame 5 -->
  <g transform="translate(400,0)">
    <circle cx="50" cy="50" r="20" fill="#ff6b6b"/>
    <path d="M30 70 L70 70" stroke="#ff6b6b" stroke-width="4" fill="none"/>
    <path d="M30 70 L20 90" stroke="#ff6b6b" stroke-width="4" fill="none"/>
    <path d="M70 70 L80 90" stroke="#ff6b6b" stroke-width="4" fill="none"/>
    <path d="M50 30 L50 70" stroke="#ff6b6b" stroke-width="4" fill="none"/>
    <path d="M50 30 L30 50" stroke="#ff6b6b" stroke-width="4" fill="none"/>
    <path d="M50 30 L70 50" stroke="#ff6b6b" stroke-width="4" fill="none"/>
  </g>
  
  <!-- Frame 6 -->
  <g transform="translate(500,0)">
    <circle cx="50" cy="50" r="20" fill="#ff6b6b"/>
    <path d="M30 70 L70 70" stroke="#ff6b6b" stroke-width="4" fill="none"/>
    <path d="M30 70 L20 90" stroke="#ff6b6b" stroke-width="4" fill="none"/>
    <path d="M70 70 L80 90" stroke="#ff6b6b" stroke-width="4" fill="none"/>
    <path d="M50 30 L50 70" stroke="#ff6b6b" stroke-width="4" fill="none"/>
    <path d="M50 30 L30 50" stroke="#ff6b6b" stroke-width="4" fill="none"/>
    <path d="M50 30 L70 50" stroke="#ff6b6b" stroke-width="4" fill="none"/>
  </g>
</svg> 